HIERARCHY
ROOT Hips
{
  OFFSET 1.44925e-005 102.336 -0.101585
  CHANNELS 6 Xposition Yposition Zposition Zrotation Xrotation Yrotation
  JOINT LeftUpLeg
  {
    OFFSET 8.9458 -8.66707 0.101652
    CHANNELS 3 Zrotation Xrotation Yrotation
    JOINT LeftLeg
    {
      OFFSET 0 -44.4227 1.3727
      CHANNELS 3 Zrotation Xrotation Yrotation
      JOINT LeftFoot
      {
        OFFSET -0.253549 -42.0924 -1.46059
        CHANNELS 3 Zrotation Xrotation Yrotation
        JOINT LeftToes
        {
          OFFSET -0.04 -4.41509 8.4991
          CHANNELS 3 Zrotation Xrotation Yrotation
          End Site
          {
            OFFSET 0.08 -0.047448 9.77979
          }
        }
      }
    }
  }
  JOINT Spine
  {
    OFFSET 0 11.8905 0
    CHANNELS 3 Zrotation Xrotation Yrotation
    JOINT Spine1
    {
      OFFSET 0 25.6574 0.127663
      CHANNELS 3 Zrotation Xrotation Yrotation
      JOINT RightShoulder
      {
        OFFSET -8.99 -0.362252 -0.22
        CHANNELS 3 Zrotation Xrotation Yrotation
        JOINT RightArm
        {
          OFFSET -10.2827 -0.00338 0.322123
          CHANNELS 3 Zrotation Xrotation Yrotation
          JOINT RightForeArm
          {
            OFFSET -26.364 0.099144 -1.42434
            CHANNELS 3 Zrotation Xrotation Yrotation
            JOINT RightHand
            {
              OFFSET -22.0324 0.085362 1.02216
              CHANNELS 3 Zrotation Xrotation Yrotation
              End Site
              {
                OFFSET -13.3284 -0.6 1.50291
              }
            }
          }
        }
      }
      JOINT LeftShoulder1
      {
        OFFSET 8.99 -0.362252 -0.22
        CHANNELS 3 Zrotation Xrotation Yrotation
        JOINT LeftArm
        {
          OFFSET 10.2827 -0.00337999 0.322123
          CHANNELS 3 Zrotation Xrotation Yrotation
          JOINT LeftForeArm
          {
            OFFSET 26.2597 0.099144 -1.42434
            CHANNELS 3 Zrotation Xrotation Yrotation
            JOINT LeftHand
            {
              OFFSET 22.0902 0.085362 1.02216
              CHANNELS 3 Zrotation Xrotation Yrotation
              End Site
              {
                OFFSET 13.419 -0.6 1.50291
              }
            }
          }
        }
      }
      JOINT Head
      {
        OFFSET 0 8.73416 0.011341
        CHANNELS 3 Zrotation Xrotation Yrotation
        End Site
        {
          OFFSET -0.29 12.7742 2.51395
        }
      }
    }
  }
  JOINT RightUpLeg
  {
    OFFSET -8.9458 -8.66707 0.101652
    CHANNELS 3 Zrotation Xrotation Yrotation
    JOINT RightLeg
    {
      OFFSET 0 -44.4227 1.3727
      CHANNELS 3 Zrotation Xrotation Yrotation
      JOINT RightFoot
      {
        OFFSET 0.253549 -42.0924 -1.46059
        CHANNELS 3 Zrotation Xrotation Yrotation
        JOINT RightToes
        {
          OFFSET 0.04 -4.41509 8.4991
          CHANNELS 3 Zrotation Xrotation Yrotation
          End Site
          {
            OFFSET -0.08 -0.137448 9.77979
          }
        }
      }
    }
  }
}
MOTION
Frames:	21
Frame Time:	0.0333333
12.2206 101.859 2.4587 -5.6995 -0.831122 -90.5957 0.199693 -1.30711 2.54624 0.378385 13.3299 19.0988 -4.58069 -10.5713 -0.0744117 -1.34434e-009 8.75236e-006 -1.47796e-008 0.159761 13.2908 -0.0707517 -1.37076 -3.55044 0.20362 37.3619 1.81574 0.157038 42.4272 -21.1052 10.2731 9.89261 37.7906 5.25956 -9.22656 9.58566 -1.17646 -45.1282 3.58511 -3.3932 -25.2741 -12.2378 -1.32522 -6.21592 36.8202 -12.6635 5.82328 9.61819 -0.917488 -0.607941 -6.63244 -4.19416 -3.75567 -1.2123 -5.48664 -0.379907 14.018 -11.1407 6.41175 -11.6965 0.0378088 0.0462048 0.000530889 0.662642 
12.2036 101.859 2.4587 -5.7347 -0.819351 -90.5465 0.227098 -1.25482 2.57522 0.367494 13.3143 19.0205 -4.57994 -10.5713 -0.0744117 -1.34434e-009 8.75236e-006 -1.47796e-008 0.126531 13.3241 -0.0724923 -1.30026 -3.56007 0.188336 37.3325 1.81574 0.157038 42.4019 -20.9747 10.2462 9.86562 37.5733 5.36429 -9.10874 9.60591 -1.40484 -45.121 3.58409 -3.3932 -25.292 -12.1765 -1.34181 -6.09893 36.9012 -12.7851 5.82328 9.61819 -0.917488 -0.592197 -6.70263 -4.22014 -3.72397 -1.13269 -5.46281 -0.39564 13.9729 -11.2099 6.39725 -11.6848 0.0378072 0.0462048 0.000530889 0.662642 
12.1884 101.859 2.4587 -5.75562 -0.812635 -90.4508 0.240883 -1.23321 2.58142 0.371131 13.3151 18.9203 -4.57031 -10.5684 -0.074411 -1.34434e-009 8.75236e-006 -1.47796e-008 0.113949 13.3624 -0.0903204 -1.26107 -3.59915 0.163245 37.3519 1.81574 0.157038 42.3277 -20.7766 10.2404 9.84474 37.3327 5.47908 -8.93219 9.62873 -1.64795 -45.0613 3.57819 -3.39318 -25.3374 -12.0244 -1.40357 -5.92456 36.9555 -12.9821 5.82328 9.61819 -0.917488 -0.538224 -6.89129 -4.24041 -3.70358 -1.06002 -5.4549 -0.399907 13.927 -11.3123 6.41743 -11.676 0.037806 0.0462048 0.000530889 0.662642 
12.1932 101.857 2.4587 -5.73237 -0.817959 -90.3366 0.226525 -1.29075 2.54561 0.393443 13.3463 18.8431 -4.54587 -10.5594 -0.0744088 -1.34434e-009 8.75236e-006 -1.47796e-008 0.149133 13.4029 -0.12461 -1.30076 -3.68892 0.136777 37.4472 1.81585 0.157038 42.2265 -20.6402 10.2852 9.85576 37.2513 5.50714 -8.85772 9.63565 -1.71577 -44.9679 3.56742 -3.39314 -25.3824 -11.7772 -1.49176 -5.82058 36.8922 -13.1306 5.82328 9.61819 -0.917488 -0.441882 -7.07549 -4.21643 -3.71484 -1.06863 -5.47754 -0.381681 13.9279 -11.4029 6.45168 -11.6731 0.0378056 0.0462048 0.000530889 0.662642 
12.2074 101.855 2.4587 -5.70086 -0.820319 -90.2444 0.217155 -1.36841 2.51185 0.412709 13.3942 18.7835 -4.5499 -10.567 -0.0744106 -1.34434e-009 8.75236e-006 -1.47796e-008 0.179872 13.4518 -0.147626 -1.32185 -3.78604 0.117926 37.5233 1.81638 0.156772 42.1586 -20.5521 10.3701 9.89481 37.2185 5.47747 -8.9433 9.63172 -1.69904 -44.9117 3.56017 -3.3932 -25.4081 -11.6028 -1.58926 -5.81186 36.8526 -13.1647 5.82328 9.61819 -0.917488 -0.338486 -7.17752 -4.15855 -3.72703 -1.11393 -5.50021 -0.358831 13.9613 -11.4747 6.44746 -11.679 0.0378064 0.0462048 0.000530889 0.662642 
12.2147 101.85 2.45928 -5.69319 -0.811456 -90.2087 0.225146 -1.41295 2.50238 0.424359 13.4521 18.7541 -4.59611 -10.6044 -0.0744197 -1.34434e-009 8.75236e-006 -1.47796e-008 0.16871 13.5014 -0.140765 -1.26286 -3.84866 0.114153 37.5102 1.81705 0.157707 42.1575 -20.4582 10.4731 9.94174 37.1625 5.44183 -9.09681 9.62435 -1.68373 -44.9053 3.55891 -3.39387 -25.4363 -11.6621 -1.69115 -5.8521 36.9667 -13.0972 5.82328 9.61819 -0.917488 -0.265099 -7.25694 -4.09779 -3.72006 -1.1399 -5.50496 -0.342349 13.9975 -11.5156 6.4179 -11.7012 0.0378094 0.0462048 0.000530889 0.662642 
12.2151 101.842 2.46243 -5.7004 -0.80168 -90.2263 0.225414 -1.43054 2.49217 0.441087 13.5088 18.778 -4.63823 -10.6479 -0.0744303 -1.34434e-009 8.75236e-006 -1.47796e-008 0.151996 13.5462 -0.118984 -1.19589 -3.89887 0.124776 37.4485 1.81782 0.164803 42.2066 -20.3954 10.5723 9.96353 37.2095 5.4146 -9.15605 9.62093 -1.62143 -44.9037 3.55869 -3.3949 -25.4749 -11.8319 -1.77252 -5.88975 37.1132 -13.0162 5.82328 9.61819 -0.917488 -0.224949 -7.3672 -4.05211 -3.7166 -1.14907 -5.5092 -0.337716 14.0269 -11.5011 6.412 -11.7292 0.0378133 0.0462048 0.000530889 0.662642 
12.2145 101.837 2.46858 -5.70632 -0.797524 -90.2725 0.212724 -1.43571 2.47663 0.457848 13.5421 18.837 -4.6442 -10.6713 -0.0747134 -1.34434e-009 8.75236e-006 -1.47796e-008 0.173737 13.5791 -0.100039 -1.19433 -3.9567 0.146092 37.3927 1.81867 0.171993 42.2812 -20.4114 10.6508 9.938 37.3953 5.41077 -9.0553 9.62184 -1.51505 -44.9111 3.56023 -3.39608 -25.4716 -11.8769 -1.79931 -5.89503 37.1174 -13.0059 5.82328 9.61819 -0.917488 -0.209669 -7.44786 -4.03005 -3.72431 -1.15788 -5.511 -0.337351 14.0444 -11.438 6.43175 -11.7381 0.0378145 0.0462048 0.000530889 0.662642 
12.2109 101.836 2.47253 -5.71466 -0.787823 -90.3311 0.216701 -1.42488 2.488 0.457535 13.5553 18.884 -4.64185 -10.6836 -0.0758401 -1.34434e-009 8.75236e-006 -1.47796e-008 0.22245 13.5884 -0.081785 -1.22778 -3.99675 0.174072 37.3495 1.81955 0.177341 42.3469 -20.4261 10.7029 9.8925 37.4901 5.4527 -8.90577 9.62409 -1.48638 -44.9633 3.56476 -3.39723 -25.3941 -11.8017 -1.77631 -5.87635 37.0366 -13.0478 5.82328 9.61819 -0.917488 -0.216249 -7.4324 -4.03756 -3.71864 -1.15731 -5.50115 -0.348319 14.046 -11.3787 6.44547 -11.7265 0.0378129 0.0462048 0.000530889 0.662642 
12.2017 101.837 2.47377 -5.72991 -0.770922 -90.3877 0.238237 -1.40599 2.52135 0.447689 13.5775 18.907 -4.65385 -10.7003 -0.0769812 -1.34434e-009 8.75236e-006 -1.47796e-008 0.27108 13.5826 -0.0679388 -1.25797 -4.01666 0.196775 37.3445 1.82044 0.178498 42.3404 -20.3285 10.7322 9.88336 37.3246 5.51931 -8.85684 9.62622 -1.55824 -45.018 3.57 -3.39812 -25.3011 -11.7551 -1.74246 -5.88615 37.0202 -13.0449 5.82328 9.61819 -0.917488 -0.227138 -7.35669 -4.06894 -3.69003 -1.14707 -5.46465 -0.374374 14.0517 -11.3591 6.44758 -11.7219 0.0378123 0.0462048 0.000530889 0.662642 
12.192 101.835 2.47375 -5.74748 -0.769714 -90.4185 0.236392 -1.39091 2.52881 0.44901 13.6068 18.9267 -4.65838 -10.7116 -0.0781221 -1.34434e-009 8.75236e-006 -1.47796e-008 0.310653 13.5809 -0.0759682 -1.30047 -4.04252 0.198345 37.408 1.8213 0.172139 42.2483 -20.1601 10.749 9.91136 37.0609 5.57233 -8.88062 9.62726 -1.60519 -45.0081 3.57301 -3.39856 -25.2534 -11.7399 -1.72258 -5.96232 37.0543 -12.9578 5.82328 9.61819 -0.917488 -0.218298 -7.29798 -4.10939 -3.67872 -1.14238 -5.44414 -0.398267 14.086 -11.3515 6.45068 -11.7408 0.0378148 0.0462048 0.000530889 0.662642 
12.187 101.83 2.47285 -5.76563 -0.790127 -90.4148 0.206835 -1.37569 2.50856 0.456214 13.6213 18.9394 -4.64974 -10.7186 -0.0792507 -1.34434e-009 8.75236e-006 -1.47796e-008 0.321637 13.5836 -0.101349 -1.33067 -4.0464 0.178256 37.4706 1.82209 0.164011 42.173 -20.0613 10.7689 9.91401 36.9449 5.61945 -8.81392 9.62899 -1.59431 -44.9834 3.57495 -3.39833 -25.2209 -11.7101 -1.71338 -6.06066 37.0783 -12.8495 5.82328 9.61819 -0.917488 -0.199011 -7.28612 -4.14158 -3.70449 -1.13876 -5.46503 -0.403053 14.1325 -11.3257 6.45816 -11.7725 0.0378192 0.0462048 0.000530889 0.662642 
12.1844 101.825 2.47147 -5.78127 -0.800299 -90.4009 0.198611 -1.37099 2.5078 0.454608 13.6467 18.9262 -4.66065 -10.7505 -0.0803625 -1.34434e-009 8.75236e-006 -1.47796e-008 0.289247 13.5597 -0.115437 -1.28576 -3.99135 0.154952 37.4378 1.82278 0.161096 42.2041 -20.0741 10.7926 9.87313 36.9775 5.67054 -8.66053 9.63737 -1.62476 -45.0273 3.57538 -3.39725 -25.1678 -11.7583 -1.70169 -6.09982 37.15 -12.79 5.82328 9.61819 -0.917488 -0.191933 -7.31112 -4.14444 -3.719 -1.13813 -5.47896 -0.403361 14.1657 -11.3141 6.47544 -11.8044 0.0382336 0.0462048 0.000530889 0.662642 
12.185 101.818 2.47002 -5.7854 -0.78364 -90.4019 0.223705 -1.40218 2.52687 0.45577 13.7218 18.908 -4.69342 -10.8055 -0.081445 -1.34434e-009 8.75236e-006 -1.47796e-008 0.254494 13.5425 -0.109833 -1.20664 -3.94268 0.146718 37.3661 1.82334 0.159947 42.2702 -20.1318 10.7939 9.85622 37.0136 5.6728 -8.65452 9.64017 -1.68644 -45.0747 3.57377 -3.39494 -25.1555 -11.8971 -1.67811 -6.06444 37.2521 -12.7972 5.82328 9.61819 -0.917488 -0.181053 -7.35411 -4.11917 -3.68539 -1.15177 -5.44422 -0.42357 14.2146 -11.3525 6.49992 -11.8376 0.0395883 0.0462048 0.000530889 0.662642 
12.1909 101.809 2.46891 -5.7862 -0.77002 -90.4153 0.236051 -1.44631 2.52676 0.469117 13.8107 18.9181 -4.7135 -10.8415 -0.0823886 -1.34434e-009 8.75236e-006 -1.47796e-008 0.264962 13.5943 -0.101997 -1.20308 -3.9708 0.156748 37.3868 1.82373 0.160215 42.2482 -20.1982 10.7618 9.91145 37.0197 5.5791 -8.89797 9.63052 -1.65936 -45.0155 3.56609 -3.38831 -25.2352 -11.8774 -1.64821 -6.00713 37.166 -12.8759 5.82328 9.61819 -0.917488 -0.141193 -7.39571 -4.11206 -3.65183 -1.19849 -5.40987 -0.450611 14.3176 -11.3981 6.49738 -11.8759 0.0408976 0.0462048 0.000530889 0.662642 
12.1992 101.802 2.46652 -5.81152 -0.776741 -90.4283 0.229387 -1.45057 2.5272 0.472799 13.8685 18.9286 -4.7287 -10.8617 -0.0838346 -1.34434e-009 8.75236e-006 -1.47796e-008 0.295904 13.6966 -0.100383 -1.26204 -4.00012 0.171965 37.479 1.82391 0.161551 42.1658 -20.2851 10.7361 9.9918 37.0619 5.4401 -9.14519 9.61689 -1.57823 -44.9116 3.55382 -3.38001 -25.324 -11.5401 -1.627 -5.9578 36.804 -13.0253 5.82328 9.61819 -0.917488 -0.099154 -7.43372 -4.15194 -3.6592 -1.22858 -5.42821 -0.452508 14.4322 -11.3958 6.45408 -11.9219 0.0427196 0.0462048 0.000530889 0.662642 
12.2045 101.793 2.45867 -5.86525 -0.772002 -90.4347 0.250011 -1.43469 2.56848 0.464485 13.9534 18.8925 -4.77838 -10.9192 -0.087631 -1.34434e-009 8.75236e-006 -1.47796e-008 0.311142 13.7846 -0.105092 -1.28752 -3.94395 0.17345 37.5309 1.82386 0.163608 42.1264 -20.3691 10.7407 10.0294 37.1339 5.35113 -9.13204 9.61923 -1.60609 -44.8852 3.5505 -3.37871 -25.3327 -11.1205 -1.60761 -5.88919 36.431 -13.2061 5.82328 9.61819 -0.917488 -0.0924098 -7.47964 -4.18588 -3.65873 -1.20309 -5.44803 -0.441126 14.4972 -11.3818 6.42944 -11.9796 0.0456553 0.0462048 0.000530889 0.662642 
12.2082 101.776 2.44533 -5.91709 -0.743745 -90.4314 0.287024 -1.46645 2.60052 0.485996 14.1301 18.8435 -4.8453 -11.0114 -0.092289 -1.34434e-009 8.75236e-006 -1.47796e-008 0.3366 13.8678 -0.121206 -1.29254 -3.87067 0.160143 37.5511 1.82354 0.166036 42.1266 -20.4086 10.7245 10.015 37.1373 5.35511 -8.9408 9.63403 -1.73158 -44.8934 3.55007 -3.37945 -25.3234 -10.9473 -1.57725 -5.78435 36.3242 -13.3544 5.82328 9.61819 -0.917488 -0.104456 -7.52788 -4.16564 -3.61165 -1.17662 -5.40761 -0.459144 14.562 -11.413 6.47822 -12.0514 0.0511678 0.0462048 0.000530889 0.662642 
12.2156 101.753 2.43391 -5.95844 -0.736174 -90.427 0.277871 -1.52912 2.56567 0.541019 14.3357 18.8455 -4.89221 -11.0883 -0.096725 -1.34434e-009 8.75236e-006 -1.47796e-008 0.363063 13.9924 -0.131593 -1.31155 -3.83181 0.155643 37.5673 1.82291 0.168344 42.1427 -20.4073 10.6524 9.96881 37.0133 5.44377 -8.83364 9.64183 -1.7786 -44.8683 3.54975 -3.37815 -25.3723 -11.0316 -1.57346 -5.68532 36.4094 -13.4379 5.82328 9.61819 -0.917488 -0.124737 -7.57505 -4.15134 -3.57886 -1.21598 -5.36021 -0.503535 14.7335 -11.4487 6.56168 -12.1496 0.0595077 0.0462048 0.000530889 0.662642 
12.2282 101.726 2.42296 -6.01895 -0.762153 -90.4361 0.24432 -1.5607 2.53735 0.571318 14.5209 18.8578 -4.96349 -11.18 -0.102396 -1.34434e-009 8.75236e-006 -1.47796e-008 0.300413 14.1495 -0.104213 -1.22528 -3.7256 0.166981 37.4433 1.82176 0.176216 42.2785 -20.3786 10.594 9.90146 36.823 5.58671 -8.87393 9.64474 -1.72046 -44.9323 3.55462 -3.37843 -25.3924 -11.1597 -1.63972 -5.63773 36.4256 -13.4769 5.82328 9.61819 -0.917488 -0.207057 -7.66645 -4.19998 -3.60038 -1.29231 -5.3705 -0.531537 15.0097 -11.4335 6.62299 -12.2969 0.0696667 0.0462048 0.000530889 0.662642 
12.2546 101.688 2.40723 -6.09377 -0.759446 -90.4396 0.265851 -1.64119 2.57239 0.584078 14.8317 18.8019 -5.12477 -11.3709 -0.114971 -1.34434e-009 8.75236e-006 -1.47796e-008 0.196043 14.3656 -0.0715478 -0.998148 -3.567 0.158043 37.1244 1.81918 0.198655 42.572 -20.31 10.6154 9.82781 36.672 5.73357 -8.92457 9.64476 -1.7054 -45.1621 3.58187 -3.39717 -25.2901 -11.2093 -1.72477 -5.61732 36.2739 -13.5265 5.82328 9.61819 -0.917488 -0.368025 -7.86662 -4.22612 -3.59607 -1.37623 -5.37547 -0.543148 15.3201 -11.4383 6.68097 -12.4918 0.0823798 0.0462048 0.000530889 0.662642 
